<?xml version="1.0" encoding="UTF-8" standalone="no"?>
<svg
   xmlns:dc="http://purl.org/dc/elements/1.1/"
   xmlns:cc="http://creativecommons.org/ns#"
   xmlns:rdf="http://www.w3.org/1999/02/22-rdf-syntax-ns#"
   xmlns:svg="http://www.w3.org/2000/svg"
   xmlns="http://www.w3.org/2000/svg"
   xmlns:sodipodi="http://sodipodi.sourceforge.net/DTD/sodipodi-0.dtd"
   xmlns:inkscape="http://www.inkscape.org/namespaces/inkscape"
   xml:space="preserve"
   version="1.1"
   style="shape-rendering:geometricPrecision;text-rendering:geometricPrecision;image-rendering:optimizeQuality;"
   viewBox="0 0 282 262.5"
   x="0px"
   y="0px"
   fill-rule="evenodd"
   clip-rule="evenodd"
   id="svg28"
   sodipodi:docname="noun_1206477_cc2.svg"
   inkscape:version="0.92.1 r15371"><metadata
     id="metadata32"><rdf:RDF><cc:Work
         rdf:about=""><dc:format>image/svg+xml</dc:format><dc:type
           rdf:resource="http://purl.org/dc/dcmitype/StillImage" /><dc:title></dc:title><dc:source>yasminvisible</dc:source></cc:Work></rdf:RDF></metadata><sodipodi:namedview
     pagecolor="#ffffff"
     bordercolor="#666666"
     borderopacity="1"
     objecttolerance="10"
     gridtolerance="10"
     guidetolerance="10"
     inkscape:pageopacity="0"
     inkscape:pageshadow="2"
     inkscape:window-width="1920"
     inkscape:window-height="1058"
     id="namedview30"
     showgrid="false"
     inkscape:zoom="0.89904762"
     inkscape:cx="141"
     inkscape:cy="131.25"
     inkscape:window-x="-8"
     inkscape:window-y="-8"
     inkscape:window-maximized="1"
     inkscape:current-layer="svg28" /><defs
     id="defs4"><style
       type="text/css"
       id="style2">
   
    .fil0 {fill:#6F4E37}
    .fil1 {fill:#013220}
   
  </style></defs><g
     id="g22"><path
       class="fil0"
       d="M282 117c3,43 -72,63 -90,24 35,5 41,-5 47,-15 5,-8 11,-19 43,-9z"
       id="path6" /><path
       class="fil0"
       d="M280 109c-33,-10 -40,1 -46,11 -6,9 -10,18 -45,12 -5,-45 77,-66 91,-23z"
       id="path8" /><path
       class="fil0"
       d="M183 48c29,26 -7,88 -44,74 27,-20 24,-30 22,-41 -2,-9 -5,-20 22,-33z"
       id="path10" /><path
       class="fil0"
       d="M177 44c-28,14 -26,26 -23,37 2,9 5,18 -22,36 -33,-26 8,-93 45,-73z"
       id="path12" /><path
       class="fil0"
       d="M201 192c-17,34 -83,18 -81,-20 26,19 35,13 43,8 8,-4 17,-10 38,12z"
       id="path14" /><path
       class="fil0"
       d="M203 185c-22,-22 -32,-17 -41,-11 -8,4 -15,9 -40,-10 15,-38 88,-19 81,21z"
       id="path16" /><path
       class="fil1"
       d="M113 138c-6,-17 -16,-34 -19,-40 -13,1 -25,-2 -44,-10 16,5 29,7 42,6 -3,-5 -6,-9 -9,-13 -9,0 -18,-2 -30,-7 11,3 20,4 28,4 -3,-4 -6,-8 -9,-12 -6,0 -12,-1 -21,-5 7,2 13,3 19,3 -13,-14 -28,-24 -48,-35 43,18 56,32 87,81 -16,-108 -58,-56 -106,-110 1,138 56,103 110,138z"
       id="path18" /><path
       class="fil1"
       d="M119 158c-11,-6 -24,-10 -28,-11 -6,7 -14,11 -26,16 10,-5 17,-10 23,-17 -4,-1 -7,-2 -11,-2 -4,4 -9,7 -18,11 7,-4 12,-7 16,-12 -4,0 -7,-1 -10,-1 -3,3 -7,5 -13,8 5,-3 8,-5 11,-8 -13,-1 -25,1 -40,6 29,-12 43,-11 81,-3 -60,-45 -55,1 -104,-2 66,66 76,23 119,15z"
       id="path20" /></g></svg>